<svg width="75" height="78" viewBox="0 0 75 78" fill="none" xmlns="http://www.w3.org/2000/svg">
<g filter="url(#filter0_d_2_19)">
<rect x="11" width="60" height="70" rx="18" fill="#00388B" fill-opacity="0.76" shape-rendering="crispEdges"/>
</g>
<path d="M0.636364 73V26.4545H16.3636C20.0152 26.4545 23 27.1136 25.3182 28.4318C27.6515 29.7348 29.3788 31.5 30.5 33.7273C31.6212 35.9545 32.1818 38.4394 32.1818 41.1818C32.1818 43.9242 31.6212 46.4167 30.5 48.6591C29.3939 50.9015 27.6818 52.6894 25.3636 54.0227C23.0455 55.3409 20.0758 56 16.4545 56H5.18182V51H16.2727C18.7727 51 20.7803 50.5682 22.2955 49.7045C23.8106 48.8409 24.9091 47.6742 25.5909 46.2045C26.2879 44.7197 26.6364 43.0455 26.6364 41.1818C26.6364 39.3182 26.2879 37.6515 25.5909 36.1818C24.9091 34.7121 23.803 33.5606 22.2727 32.7273C20.7424 31.8788 18.7121 31.4545 16.1818 31.4545H6.27273V73H0.636364Z" fill="white"/>
<path d="M33.7266 59.4531C34.2422 59.4531 34.7188 59.3477 35.1562 59.1367C35.5938 58.9258 35.9531 58.6367 36.2344 58.2695C36.5156 57.8945 36.6758 57.4688 36.7148 56.9922H38.7773C38.7383 57.7422 38.4844 58.4414 38.0156 59.0898C37.5547 59.7305 36.9492 60.25 36.1992 60.6484C35.4492 61.0391 34.625 61.2344 33.7266 61.2344C32.7734 61.2344 31.9414 61.0664 31.2305 60.7305C30.5273 60.3945 29.9414 59.9336 29.4727 59.3477C29.0117 58.7617 28.6641 58.0898 28.4297 57.332C28.2031 56.5664 28.0898 55.7578 28.0898 54.9062V54.4141C28.0898 53.5625 28.2031 52.7578 28.4297 52C28.6641 51.2344 29.0117 50.5586 29.4727 49.9727C29.9414 49.3867 30.5273 48.9258 31.2305 48.5898C31.9414 48.2539 32.7734 48.0859 33.7266 48.0859C34.7188 48.0859 35.5859 48.2891 36.3281 48.6953C37.0703 49.0938 37.6523 49.6406 38.0742 50.3359C38.5039 51.0234 38.7383 51.8047 38.7773 52.6797H36.7148C36.6758 52.1562 36.5273 51.6836 36.2695 51.2617C36.0195 50.8398 35.6758 50.5039 35.2383 50.2539C34.8086 49.9961 34.3047 49.8672 33.7266 49.8672C33.0625 49.8672 32.5039 50 32.0508 50.2656C31.6055 50.5234 31.25 50.875 30.9844 51.3203C30.7266 51.7578 30.5391 52.2461 30.4219 52.7852C30.3125 53.3164 30.2578 53.8594 30.2578 54.4141V54.9062C30.2578 55.4609 30.3125 56.0078 30.4219 56.5469C30.5312 57.0859 30.7148 57.5742 30.9727 58.0117C31.2383 58.4492 31.5938 58.8008 32.0391 59.0664C32.4922 59.3242 33.0547 59.4531 33.7266 59.4531ZM48.6914 58.832V52.3047C48.6914 51.8047 48.5898 51.3711 48.3867 51.0039C48.1914 50.6289 47.8945 50.3398 47.4961 50.1367C47.0977 49.9336 46.6055 49.832 46.0195 49.832C45.4727 49.832 44.9922 49.9258 44.5781 50.1133C44.1719 50.3008 43.8516 50.5469 43.6172 50.8516C43.3906 51.1562 43.2773 51.4844 43.2773 51.8359H41.1094C41.1094 51.3828 41.2266 50.9336 41.4609 50.4883C41.6953 50.043 42.0312 49.6406 42.4688 49.2812C42.9141 48.9141 43.4453 48.625 44.0625 48.4141C44.6875 48.1953 45.3828 48.0859 46.1484 48.0859C47.0703 48.0859 47.8828 48.2422 48.5859 48.5547C49.2969 48.8672 49.8516 49.3398 50.25 49.9727C50.6562 50.5977 50.8594 51.3828 50.8594 52.3281V58.2344C50.8594 58.6562 50.8945 59.1055 50.9648 59.582C51.043 60.0586 51.1562 60.4688 51.3047 60.8125V61H49.043C48.9336 60.75 48.8477 60.418 48.7852 60.0039C48.7227 59.582 48.6914 59.1914 48.6914 58.832ZM49.0664 53.3125L49.0898 54.8359H46.8984C46.2812 54.8359 45.7305 54.8867 45.2461 54.9883C44.7617 55.082 44.3555 55.2266 44.0273 55.4219C43.6992 55.6172 43.4492 55.8633 43.2773 56.1602C43.1055 56.4492 43.0195 56.7891 43.0195 57.1797C43.0195 57.5781 43.1094 57.9414 43.2891 58.2695C43.4688 58.5977 43.7383 58.8594 44.0977 59.0547C44.4648 59.2422 44.9141 59.3359 45.4453 59.3359C46.1094 59.3359 46.6953 59.1953 47.2031 58.9141C47.7109 58.6328 48.1133 58.2891 48.4102 57.8828C48.7148 57.4766 48.8789 57.082 48.9023 56.6992L49.8281 57.7422C49.7734 58.0703 49.625 58.4336 49.3828 58.832C49.1406 59.2305 48.8164 59.6133 48.4102 59.9805C48.0117 60.3398 47.5352 60.6406 46.9805 60.8828C46.4336 61.1172 45.8164 61.2344 45.1289 61.2344C44.2695 61.2344 43.5156 61.0664 42.8672 60.7305C42.2266 60.3945 41.7266 59.9453 41.3672 59.3828C41.0156 58.8125 40.8398 58.1758 40.8398 57.4727C40.8398 56.793 40.9727 56.1953 41.2383 55.6797C41.5039 55.1562 41.8867 54.7227 42.3867 54.3789C42.8867 54.0273 43.4883 53.7617 44.1914 53.582C44.8945 53.4023 45.6797 53.3125 46.5469 53.3125H49.0664ZM56.4375 50.3125V61H54.2695V48.3203H56.3789L56.4375 50.3125ZM60.3984 48.25L60.3867 50.2656C60.207 50.2266 60.0352 50.2031 59.8711 50.1953C59.7148 50.1797 59.5352 50.1719 59.332 50.1719C58.832 50.1719 58.3906 50.25 58.0078 50.4062C57.625 50.5625 57.3008 50.7812 57.0352 51.0625C56.7695 51.3438 56.5586 51.6797 56.4023 52.0703C56.2539 52.4531 56.1562 52.875 56.1094 53.3359L55.5 53.6875C55.5 52.9219 55.5742 52.2031 55.7227 51.5312C55.8789 50.8594 56.1172 50.2656 56.4375 49.75C56.7578 49.2266 57.1641 48.8203 57.6562 48.5312C58.1562 48.2344 58.75 48.0859 59.4375 48.0859C59.5938 48.0859 59.7734 48.1055 59.9766 48.1445C60.1797 48.1758 60.3203 48.2109 60.3984 48.25Z" fill="white"/>
<defs>
<filter id="filter0_d_2_19" x="7" y="0" width="68" height="78" filterUnits="userSpaceOnUse" color-interpolation-filters="sRGB">
<feFlood flood-opacity="0" result="BackgroundImageFix"/>
<feColorMatrix in="SourceAlpha" type="matrix" values="0 0 0 0 0 0 0 0 0 0 0 0 0 0 0 0 0 0 127 0" result="hardAlpha"/>
<feOffset dy="4"/>
<feGaussianBlur stdDeviation="2"/>
<feComposite in2="hardAlpha" operator="out"/>
<feColorMatrix type="matrix" values="0 0 0 0 0 0 0 0 0 0 0 0 0 0 0 0 0 0 0.25 0"/>
<feBlend mode="normal" in2="BackgroundImageFix" result="effect1_dropShadow_2_19"/>
<feBlend mode="normal" in="SourceGraphic" in2="effect1_dropShadow_2_19" result="shape"/>
</filter>
</defs>
</svg>
